<svg xmlns="http://www.w3.org/2000/svg" viewBox="0 0 316 126"><defs><style>.cls-1{fill:#f0d003;}.cls-2{fill:#fff;}</style></defs><title>landing_lightning_logo</title><g id="Layer_1" data-name="Layer 1"><polygon class="cls-1" points="53.48 0.73 5.19 65.75 60.72 51.31 27.44 51.32 53.48 0.73"/><polygon class="cls-1" points="11.91 126 60.2 60.98 4.68 75.42 37.95 75.42 11.91 126"/><polygon class="cls-2" points="106.04 47.65 94.73 47.65 94.73 20.63 91.02 20.63 91.02 51.24 106.04 51.24 106.04 47.65"/><rect class="cls-2" x="115.54" y="20.63" width="3.71" height="30.61"/><path class="cls-2" d="M146.27,22.5a8.1,8.1,0,0,0-2.47-1.67,7.71,7.71,0,0,0-3-.61h-2.1a7.77,7.77,0,0,0-5.52,2.28A7.65,7.65,0,0,0,131.47,25a7.53,7.53,0,0,0-.61,3V43.87a7.53,7.53,0,0,0,.61,3A7.74,7.74,0,0,0,135.62,51a7.61,7.61,0,0,0,3,.61h1.55a6.86,6.86,0,0,0,3.32-.81,8,8,0,0,0,2.05-1.61l1.31,2h1.66V34.65h-8.44v3.59h4.72v5.63a4.07,4.07,0,0,1-.33,1.64,4.39,4.39,0,0,1-.9,1.34,4.14,4.14,0,0,1-1.33.91,4.19,4.19,0,0,1-1.63.32h-1.85a4.21,4.21,0,0,1-1.64-.32,4.3,4.3,0,0,1-1.34-.91,4.54,4.54,0,0,1-.91-1.34,4.07,4.07,0,0,1-.33-1.64V28a4,4,0,0,1,.33-1.63,4.09,4.09,0,0,1,.91-1.33,4.27,4.27,0,0,1,1.34-.9,4,4,0,0,1,1.64-.33h1.85a4,4,0,0,1,1.63.33,4.15,4.15,0,0,1,2.23,2.23,4,4,0,0,1,.33,1.63v2.23l3.72-.58V28a7.7,7.7,0,0,0-.61-3A8,8,0,0,0,146.27,22.5Z"/><polygon class="cls-2" points="174.14 34.15 163.88 34.15 163.88 20.63 160.17 20.63 160.17 51.24 163.88 51.24 163.88 37.74 174.14 37.74 174.14 51.24 177.85 51.24 177.85 20.63 174.14 20.63 174.14 34.15"/><polygon class="cls-2" points="194.4 51.24 198.11 51.24 198.11 24.22 205.16 24.22 205.16 20.63 187.35 20.63 187.35 24.22 194.4 24.22 194.4 51.24"/><polygon class="cls-2" points="232.35 51.24 232.35 20.63 228.63 20.63 228.63 41.18 216.88 20.63 214.66 20.63 214.66 51.24 218.38 51.24 218.38 30.75 230.11 51.24 232.35 51.24"/><rect class="cls-2" x="244.38" y="20.63" width="3.71" height="30.61"/><polygon class="cls-2" points="274.1 41.18 262.34 20.63 260.13 20.63 260.13 51.24 263.84 51.24 263.84 30.75 275.58 51.24 277.81 51.24 277.81 20.63 274.1 20.63 274.1 41.18"/><path class="cls-2" d="M291.69,49.38A7.87,7.87,0,0,0,294.18,51a7.61,7.61,0,0,0,3,.61h1.54a6.89,6.89,0,0,0,3.33-.81,7.76,7.76,0,0,0,2-1.61l1.31,2h1.66V34.65h-8.43v3.59h4.72v5.63a4.07,4.07,0,0,1-.33,1.64,4.39,4.39,0,0,1-.9,1.34,4.25,4.25,0,0,1-1.33.91,4.19,4.19,0,0,1-1.63.32h-1.86a4.19,4.19,0,0,1-1.63-.32,4.3,4.3,0,0,1-1.34-.91,4.36,4.36,0,0,1-.91-1.34,4.07,4.07,0,0,1-.33-1.64V28a4,4,0,0,1,.33-1.63,4.22,4.22,0,0,1,.9-1.33,4.43,4.43,0,0,1,1.35-.9,4,4,0,0,1,1.63-.33h1.86a4,4,0,0,1,1.63.33,4.24,4.24,0,0,1,2.23,2.23,4,4,0,0,1,.33,1.63v2.23l3.71-.58V28a7.53,7.53,0,0,0-.61-3,7.78,7.78,0,0,0-1.66-2.47,8.14,8.14,0,0,0-2.48-1.67,7.7,7.7,0,0,0-3-.61h-2.1a7.78,7.78,0,0,0-3,.61,7.9,7.9,0,0,0-2.49,1.67A7.78,7.78,0,0,0,290,25a7.53,7.53,0,0,0-.61,3V43.87a7.53,7.53,0,0,0,.61,3A7.94,7.94,0,0,0,291.69,49.38Z"/><polygon class="cls-2" points="104.99 86.45 93.55 66.46 91.37 66.46 91.37 96.33 95.01 96.33 95.01 76.39 106.44 96.33 108.64 96.33 108.64 66.46 104.99 66.46 104.99 86.45"/><polygon class="cls-2" points="124.46 96.33 141.73 96.33 141.73 92.8 128.1 92.8 128.1 83.17 139.13 83.17 139.13 79.64 128.1 79.64 128.1 69.99 141.73 69.99 141.73 66.46 124.46 66.46 124.46 96.33"/><polygon class="cls-2" points="153.43 69.99 160.3 69.99 160.3 96.33 163.95 96.33 163.95 69.99 170.82 69.99 170.82 66.46 153.43 66.46 153.43 69.99"/><polygon class="cls-2" points="203.26 87.12 198.03 66.46 195.76 66.46 190.54 87.09 185.23 66.46 181.54 66.46 189.48 96.33 191.64 96.33 196.89 75.83 202.19 96.33 204.35 96.33 212.25 66.46 208.56 66.46 203.26 87.12"/><path class="cls-2" d="M240.06,68.28a7.89,7.89,0,0,0-2.41-1.63,7.56,7.56,0,0,0-3-.59h-2.05a7.64,7.64,0,0,0-3,.59,7.53,7.53,0,0,0-4,4,7.35,7.35,0,0,0-.6,3V89.13a7.35,7.35,0,0,0,.6,3,7.47,7.47,0,0,0,4,4,7.47,7.47,0,0,0,3,.6h2.05a7.39,7.39,0,0,0,3-.6,7.58,7.58,0,0,0,4-4,7.39,7.39,0,0,0,.6-3V73.66a7.35,7.35,0,0,0-.6-3A7.59,7.59,0,0,0,240.06,68.28Zm-1.42,5.38V89.13a3.86,3.86,0,0,1-.32,1.59,4.3,4.3,0,0,1-.87,1.3,4,4,0,0,1-1.29.88,3.83,3.83,0,0,1-1.59.32h-1.81a3.83,3.83,0,0,1-1.59-.32,4.15,4.15,0,0,1-1.3-.88,4.35,4.35,0,0,1-.89-1.3,4,4,0,0,1-.31-1.59V73.66a3.83,3.83,0,0,1,.32-1.59,4,4,0,0,1,.88-1.29,4.33,4.33,0,0,1,1.3-.88,4,4,0,0,1,1.59-.31h1.81a4,4,0,0,1,1.59.31,4.11,4.11,0,0,1,1.29.88,4,4,0,0,1,.87,1.29A3.83,3.83,0,0,1,238.64,73.66Z"/><path class="cls-2" d="M269.92,83.44a7.89,7.89,0,0,0,2.41-1.63A7.64,7.64,0,0,0,274,79.38a7.47,7.47,0,0,0,.6-3V74.08a7.47,7.47,0,0,0-.6-3,7.64,7.64,0,0,0-1.63-2.43,8,8,0,0,0-2.41-1.63,7.56,7.56,0,0,0-3-.59h-9.67V96.33h3.64V84h2.74l7.82,12.3h4.24L267.88,84A7.87,7.87,0,0,0,269.92,83.44Zm-9-13.45h5.91a3.94,3.94,0,0,1,1.58.31,4.18,4.18,0,0,1,1.3.89,4.3,4.3,0,0,1,.87,1.3,4,4,0,0,1,.32,1.59v2.33a4,4,0,0,1-.32,1.59,4.31,4.31,0,0,1-.88,1.31,4,4,0,0,1-1.29.88,4,4,0,0,1-1.58.32h-5.91Z"/><polygon class="cls-2" points="308.35 66.46 303.8 66.46 293.12 80.64 293.12 66.46 289.48 66.46 289.48 96.33 293.12 96.33 293.12 82.14 303.8 96.33 308.35 96.33 296.88 81.39 308.35 66.46"/></g></svg>