<svg width="1440" height="413" viewBox="0 0 1440 413" fill="none" xmlns="http://www.w3.org/2000/svg">
<line x1="451.371" y1="153.007" x2="318.939" y2="131.37" stroke="#303030" stroke-width="0.75"/>
<line x1="451.441" y1="153.012" x2="319.009" y2="156.375" stroke="#303030" stroke-width="0.75"/>
<line y1="-0.375" x2="135.676" y2="-0.375" transform="matrix(-0.975763 0.218829 0.428422 0.903579 451.432 152.637)" stroke="#303030" stroke-width="0.75"/>
<line x1="451.578" y1="152.982" x2="319.147" y2="209.345" stroke="#303030" stroke-width="0.75"/>
<line x1="451.63" y1="152.955" x2="319.198" y2="235.318" stroke="#303030" stroke-width="0.75"/>
<line x1="187.518" y1="182" x2="318.862" y2="130.651" stroke="#303030" stroke-width="0.75"/>
<line x1="187.654" y1="181.975" x2="319.049" y2="181.975" stroke="#303030" stroke-width="0.75"/>
<line x1="451.296" y1="182.699" x2="318.864" y2="131.35" stroke="#303030" stroke-width="0.75"/>
<line x1="451.358" y1="182.717" x2="318.927" y2="156.368" stroke="#303030" stroke-width="0.75"/>
<line y1="-0.375" x2="132.382" y2="-0.375" transform="matrix(-1 0 0 1 451.432 182.35)" stroke="#303030" stroke-width="0.75"/>
<line x1="451.506" y1="182.717" x2="319.074" y2="209.368" stroke="#303030" stroke-width="0.75"/>
<line x1="451.57" y1="182.698" x2="319.138" y2="235.348" stroke="#303030" stroke-width="0.75"/>
<line y1="-0.375" x2="234.708" y2="-0.375" transform="matrix(-0.803389 -0.595455 -0.95155 0.307494 186.679 184.781)" stroke="url(#paint0_linear)" stroke-width="0.75"/>
<line y1="-0.375" x2="232.473" y2="-0.375" transform="matrix(-0.855206 -0.518289 -0.740852 0.671668 186.679 184.781)" stroke="url(#paint1_linear)" stroke-width="0.75"/>
<line y1="-0.375" x2="232.25" y2="-0.375" transform="matrix(-0.898188 -0.439611 -0.268369 0.963316 186.679 184.781)" stroke="url(#paint2_linear)" stroke-width="0.75"/>
<line y1="-0.375" x2="234.022" y2="-0.375" transform="matrix(-0.935254 -0.353978 0.201621 0.979464 186.679 184.781)" stroke="url(#paint3_linear)" stroke-width="0.75"/>
<line y1="-0.375" x2="237.587" y2="-0.375" transform="matrix(-0.962499 -0.271286 0.44798 0.894043 186.679 184.781)" stroke="url(#paint4_linear)" stroke-width="0.75"/>
<line y1="-0.375" x2="243.193" y2="-0.375" transform="matrix(-0.982582 -0.185829 0.582153 0.813079 186.679 184.781)" stroke="url(#paint5_linear)" stroke-width="0.75"/>
<line y1="-0.375" x2="250.211" y2="-0.375" transform="matrix(-0.994246 -0.107122 0.654925 0.755694 186.679 184.781)" stroke="url(#paint6_linear)" stroke-width="0.75"/>
<line y1="-0.375" x2="234.708" y2="-0.375" transform="matrix(-0.999824 -0.0187758 -0.59654 0.802584 184.564 184.171)" stroke="url(#paint7_linear)" stroke-width="0.75"/>
<line y1="-0.375" x2="232.473" y2="-0.375" transform="matrix(-0.997248 0.0741382 -0.213624 0.976916 184.564 184.171)" stroke="url(#paint8_linear)" stroke-width="0.75"/>
<line y1="-0.375" x2="232.25" y2="-0.375" transform="matrix(-0.9866 0.163156 0.340413 0.940276 184.564 184.171)" stroke="url(#paint9_linear)" stroke-width="0.75"/>
<line y1="-0.375" x2="234.022" y2="-0.375" transform="matrix(-0.967097 0.254406 0.732555 0.680708 184.564 184.171)" stroke="url(#paint10_linear)" stroke-width="0.75"/>
<line y1="-0.375" x2="237.587" y2="-0.375" transform="matrix(-0.941303 0.337562 0.88363 0.468186 184.564 184.171)" stroke="url(#paint11_linear)" stroke-width="0.75"/>
<line y1="-0.375" x2="243.193" y2="-0.375" transform="matrix(-0.908072 0.418814 0.945923 0.32439 184.564 184.171)" stroke="url(#paint12_linear)" stroke-width="0.75"/>
<line y1="-0.375" x2="250.211" y2="-0.375" transform="matrix(-0.8719 0.489684 0.971892 0.235427 184.564 184.171)" stroke="url(#paint13_linear)" stroke-width="0.75"/>
<line x1="187.581" y1="181.982" x2="318.925" y2="155.632" stroke="#303030" stroke-width="0.75"/>
<line x1="187.654" y1="181.975" x2="319.049" y2="181.975" stroke="#303030" stroke-width="0.75"/>
<line x1="187.729" y1="181.982" x2="319.074" y2="208.632" stroke="#303030" stroke-width="0.75"/>
<line x1="187.794" y1="182.002" x2="319.139" y2="234.652" stroke="#303030" stroke-width="0.75"/>
<line x1="451.236" y1="212.383" x2="318.804" y2="131.32" stroke="#303030" stroke-width="0.75"/>
<line x1="451.285" y1="212.408" x2="318.854" y2="156.345" stroke="#303030" stroke-width="0.75"/>
<line y1="-0.375" x2="135.676" y2="-0.375" transform="matrix(-0.975763 -0.218829 -0.428422 0.903579 451.432 212.063)" stroke="#303030" stroke-width="0.75"/>
<line x1="451.423" y1="212.438" x2="318.991" y2="209.375" stroke="#303030" stroke-width="0.75"/>
<line x1="451.496" y1="212.432" x2="319.064" y2="235.369" stroke="#303030" stroke-width="0.75"/>
<line y1="-0.375" x2="136.159" y2="-0.375" transform="matrix(0.994029 -0.109111 0.108567 0.994089 451.432 212.063)" stroke="#303030" stroke-width="0.75"/>
<line y1="-0.375" x2="142.496" y2="-0.375" transform="matrix(0.949826 -0.312778 0.311351 0.950295 451.432 212.063)" stroke="#303030" stroke-width="0.75"/>
<line y1="-0.375" x2="136.159" y2="-0.375" transform="matrix(0.994029 0.109111 -0.108567 0.994089 451.432 182.35)" stroke="#303030" stroke-width="0.75"/>
<line y1="-0.375" x2="136.159" y2="-0.375" transform="matrix(0.99403 -0.109111 0.108567 0.994089 451.432 182.35)" stroke="#303030" stroke-width="0.75"/>
<line y1="-0.375" x2="142.496" y2="-0.375" transform="matrix(0.949826 0.312778 -0.311351 0.950295 451.432 152.637)" stroke="#303030" stroke-width="0.75"/>
<line y1="-0.375" x2="136.159" y2="-0.375" transform="matrix(0.99403 0.109111 -0.108567 0.994089 451.432 152.637)" stroke="#303030" stroke-width="0.75"/>
<ellipse cx="186.667" cy="182.35" rx="5.92757" ry="5.9426" fill="#2F5954"/>
<ellipse cx="319.049" cy="130.851" rx="2.96378" ry="2.9713" fill="#2F5954"/>
<ellipse cx="319.049" cy="156.291" rx="2.96378" ry="2.9713" fill="#4B4B4B"/>
<ellipse cx="319.049" cy="182.149" rx="2.96378" ry="2.9713" fill="#4B4B4B"/>
<ellipse cx="319.049" cy="208.589" rx="2.96378" ry="2.9713" fill="#4B4B4B"/>
<ellipse cx="319.049" cy="235.029" rx="2.96378" ry="2.9713" fill="#4B4B4B"/>
<path d="M456.359 152.637C456.359 155.369 454.151 157.579 451.431 157.579C448.712 157.579 446.504 155.369 446.504 152.637C446.504 149.905 448.712 147.694 451.431 147.694C454.151 147.694 456.359 149.905 456.359 152.637Z" fill="#050505" stroke="#4B4B4B" stroke-width="2"/>
<ellipse cx="451.431" cy="182.35" rx="5.92757" ry="5.9426" fill="#2F5954"/>
<path d="M456.359 212.063C456.359 214.795 454.151 217.005 451.431 217.005C448.712 217.005 446.504 214.795 446.504 212.063C446.504 209.331 448.712 207.12 451.431 207.12C454.151 207.12 456.359 209.331 456.359 212.063Z" fill="#050505" stroke="#4B4B4B" stroke-width="2"/>
<path d="M985.841 152.925L854.5 131" stroke="#303030" stroke-width="0.75"/>
<path d="M985.914 152.93L854.5 157" stroke="#303030" stroke-width="0.75"/>
<line y1="-0.375" x2="134.688" y2="-0.375" transform="matrix(-0.975372 0.220568 0.425519 0.904949 985.901 152.555)" stroke="#303030" stroke-width="0.75"/>
<path d="M985.667 152.262L854.5 209.5" stroke="#303030" stroke-width="0.75"/>
<line x1="986.099" y1="152.873" x2="855.198" y2="234.318" stroke="#303030" stroke-width="0.75"/>
<path d="M989.018 152.925L1119.5 131" stroke="#303030" stroke-width="0.75"/>
<path d="M988.945 152.93L1119.5 156.5" stroke="#303030" stroke-width="0.75"/>
<line y1="-0.375" x2="132.205" y2="-0.375" transform="matrix(0.974426 0.22471 -0.418728 0.908112 988.958 152.555)" stroke="#303030" stroke-width="0.75"/>
<path d="M989.188 152.262L1119.5 209.5" stroke="#303030" stroke-width="0.75"/>
<path d="M988.763 152.875L1119.5 234.5" stroke="#303030" stroke-width="0.75"/>
<line x1="722.065" y1="152.185" x2="854.94" y2="130.63" stroke="#303030" stroke-width="0.75"/>
<line x1="722.138" y1="152.18" x2="855.013" y2="156.625" stroke="#303030" stroke-width="0.75"/>
<line y1="-0.375" x2="135.652" y2="-0.375" transform="matrix(0.975725 0.219001 -0.428134 0.903715 722.125 152.555)" stroke="#303030" stroke-width="0.75"/>
<line x1="722.273" y1="152.21" x2="854.148" y2="208.655" stroke="#303030" stroke-width="0.75"/>
<line x1="722.324" y1="152.237" x2="854.199" y2="234.682" stroke="#303030" stroke-width="0.75"/>
<path d="M985.766 182.553L854.5 131" stroke="#303030" stroke-width="0.75"/>
<path d="M987 182.5L854.5 157" stroke="#303030" stroke-width="0.75"/>
<line y1="-0.375" x2="131.394" y2="-0.375" transform="matrix(-1 0 0 1 985.901 182.203)" stroke="#303030" stroke-width="0.75"/>
<path d="M985.784 181.847L854.5 209.5" stroke="#303030" stroke-width="0.75"/>
<path d="M986.041 182.552L854.5 235" stroke="#303030" stroke-width="0.75"/>
<path d="M990.353 182.466L1119.5 131" stroke="#303030" stroke-width="0.75"/>
<path d="M989.135 182.413L1119.5 156.5" stroke="#303030" stroke-width="0.75"/>
<line x1="990.219" y1="181.742" x2="1119.87" y2="181.742" stroke="#303030" stroke-width="0.75"/>
<path d="M990.334 181.761L1119.88 209.368" stroke="#303030" stroke-width="0.75"/>
<path d="M990.081 182.465L1119.53 234.684" stroke="#303030" stroke-width="0.75"/>
<line x1="721.99" y1="181.853" x2="854.865" y2="130.65" stroke="#303030" stroke-width="0.75"/>
<line x1="722.055" y1="181.835" x2="854.93" y2="156.632" stroke="#303030" stroke-width="0.75"/>
<line x1="722.125" y1="181.828" x2="854.507" y2="181.828" stroke="#303030" stroke-width="0.75"/>
<line x1="722.202" y1="181.836" x2="855.077" y2="209.633" stroke="#303030" stroke-width="0.75"/>
<line x1="722.263" y1="181.855" x2="855.139" y2="234.652" stroke="#303030" stroke-width="0.75"/>
<path d="M985.706 212.172L854.5 131" stroke="#303030" stroke-width="0.75"/>
<path d="M986.139 211.562L854.5 157" stroke="#303030" stroke-width="0.75"/>
<line y1="-0.375" x2="134.688" y2="-0.375" transform="matrix(-0.975372 -0.220568 -0.425519 0.904949 985.901 211.852)" stroke="#303030" stroke-width="0.75"/>
<path d="M985.896 212.227L854.5 209.5" stroke="#303030" stroke-width="0.75"/>
<path d="M985.725 211.521L854.5 235" stroke="#303030" stroke-width="0.75"/>
<path d="M990.303 212.22L1119.5 131" stroke="#303030" stroke-width="0.75"/>
<path d="M989.881 211.61L1119.5 156.5" stroke="#303030" stroke-width="0.75"/>
<line y1="-0.375" x2="131.382" y2="-0.375" transform="matrix(0.974069 -0.226252 0.416245 0.909252 990.112 211.9)" stroke="#303030" stroke-width="0.75"/>
<path d="M990.118 212.275L1118.12 209.547" stroke="#303030" stroke-width="0.75"/>
<path d="M990.285 211.569L1119.5 235" stroke="#303030" stroke-width="0.75"/>
<line x1="721.93" y1="211.531" x2="854.805" y2="130.68" stroke="#303030" stroke-width="0.75"/>
<line x1="721.982" y1="211.505" x2="854.857" y2="156.653" stroke="#303030" stroke-width="0.75"/>
<line y1="-0.375" x2="135.652" y2="-0.375" transform="matrix(0.975725 -0.219001 0.428134 0.903715 722.125 211.852)" stroke="#303030" stroke-width="0.75"/>
<line x1="722.12" y1="211.477" x2="854.995" y2="209.611" stroke="#303030" stroke-width="0.75"/>
<line x1="722.189" y1="211.482" x2="855.064" y2="234.631" stroke="#303030" stroke-width="0.75"/>
<line y1="-0.375" x2="136.156" y2="-0.375" transform="matrix(-0.994055 -0.108877 -0.1088 0.994064 722.124 211.852)" stroke="#303030" stroke-width="0.75"/>
<line y1="-0.375" x2="142.465" y2="-0.375" transform="matrix(-0.950028 -0.312165 -0.311963 0.950094 722.124 211.852)" stroke="#303030" stroke-width="0.75"/>
<line y1="-0.375" x2="136.156" y2="-0.375" transform="matrix(-0.994055 0.108877 0.1088 0.994064 722.124 182.203)" stroke="#303030" stroke-width="0.75"/>
<line y1="-0.375" x2="136.156" y2="-0.375" transform="matrix(-0.994055 -0.108877 -0.1088 0.994064 722.124 182.203)" stroke="#303030" stroke-width="0.75"/>
<line y1="-0.375" x2="142.465" y2="-0.375" transform="matrix(-0.950028 0.312165 0.311963 0.950094 722.124 152.555)" stroke="#303030" stroke-width="0.75"/>
<line y1="-0.375" x2="136.156" y2="-0.375" transform="matrix(-0.994055 0.108877 0.1088 0.994064 722.124 152.555)" stroke="#303030" stroke-width="0.75"/>
<ellipse cx="586.779" cy="167.493" rx="5.92757" ry="5.9426" fill="#007D6F"/>
<path d="M591.707 197.206C591.707 199.938 589.498 202.149 586.779 202.149C584.06 202.149 581.852 199.938 581.852 197.206C581.852 194.474 584.06 192.264 586.779 192.264C589.498 192.264 591.707 194.474 591.707 197.206Z" fill="#050505" stroke="#4B4B4B" stroke-width="2"/>
<path d="M1251.87 181.815L1119.5 235" stroke="url(#paint14_linear)" stroke-width="0.75"/>
<path d="M1251.78 181.86L1119.5 209.5" stroke="url(#paint15_linear)" stroke-width="0.75"/>
<line x1="1251.65" y1="181.88" x2="1119.27" y2="181.88" stroke="url(#paint16_linear)" stroke-width="0.75"/>
<path d="M1251.52 181.73L1119.5 157" stroke="url(#paint17_linear)" stroke-width="0.75"/>
<path d="M1251.39 181.769L1119.5 131" stroke="url(#paint18_linear)" stroke-width="0.75"/>
<line y1="-0.375" x2="214.614" y2="-0.375" transform="matrix(0.871331 0.490696 0.663316 -0.748339 1253 180.69)" stroke="url(#paint19_linear)" stroke-width="0.75"/>
<line y1="-0.375" x2="199.54" y2="-0.375" transform="matrix(0.937082 0.34911 0.505829 -0.862634 1253 180.69)" stroke="url(#paint20_linear)" stroke-width="0.75"/>
<line y1="-0.375" x2="190.339" y2="-0.375" transform="matrix(0.982211 0.187778 0.286564 -0.958061 1253 180.69)" stroke="url(#paint21_linear)" stroke-width="0.75"/>
<line y1="-0.375" x2="186.972" y2="-0.375" transform="matrix(1 0 0 -1 1253 180.69)" stroke="url(#paint22_linear)" stroke-width="0.75"/>
<line y1="-0.375" x2="190.043" y2="-0.375" transform="matrix(0.983753 -0.179524 -0.274542 -0.961575 1253.02 180.474)" stroke="url(#paint23_linear)" stroke-width="0.75"/>
<line y1="-0.375" x2="199.54" y2="-0.375" transform="matrix(0.937082 -0.34911 -0.505829 -0.862634 1253 180.69)" stroke="url(#paint24_linear)" stroke-width="0.75"/>
<line y1="-0.375" x2="213.823" y2="-0.375" transform="matrix(0.874552 -0.484932 -0.657543 -0.753417 1253 180.69)" stroke="url(#paint25_linear)" stroke-width="0.75"/>
<ellipse rx="5.92757" ry="5.92969" transform="matrix(-1 0 0 1 986.889 152.555)" fill="#00C0AA"/>
<path d="M981.961 182.203C981.961 184.926 984.168 187.133 986.889 187.133C989.61 187.133 991.816 184.926 991.816 182.203C991.816 179.48 989.61 177.273 986.889 177.273C984.168 177.273 981.961 179.48 981.961 182.203Z" fill="#050505" stroke="#4B4B4B" stroke-width="2"/>
<path d="M981.961 211.852C981.961 214.574 984.168 216.781 986.889 216.781C989.61 216.781 991.816 214.574 991.816 211.852C991.816 209.129 989.61 206.922 986.889 206.922C984.168 206.922 981.961 209.129 981.961 211.852Z" fill="#050505" stroke="#4B4B4B" stroke-width="2"/>
<ellipse rx="2.96378" ry="2.96484" transform="matrix(-1 0 0 1 854.506 130.965)" fill="#4B4B4B"/>
<ellipse rx="2.96378" ry="2.96484" transform="matrix(-1 0 0 1 854.506 156.752)" fill="#4B4B4B"/>
<g filter="url(#filter0_d)">
<ellipse rx="2.96378" ry="2.96484" transform="matrix(-1 0 0 1 854.506 181.957)" fill="#05F5DA"/>
</g>
<ellipse rx="2.96378" ry="2.96484" transform="matrix(-1 0 0 1 854.506 209.35)" fill="#4B4B4B"/>
<ellipse rx="2.96378" ry="2.96484" transform="matrix(-1 0 0 1 854.506 234.744)" fill="#4B4B4B"/>
<path d="M717.197 152.555C717.197 155.278 719.403 157.484 722.124 157.484C724.845 157.484 727.052 155.278 727.052 152.555C727.052 149.832 724.845 147.625 722.124 147.625C719.403 147.625 717.197 149.832 717.197 152.555Z" fill="#050505" stroke="#4B4B4B" stroke-width="2"/>
<ellipse rx="5.92757" ry="5.92969" transform="matrix(-1 0 0 1 722.124 182.203)" fill="#00A18F"/>
<path d="M717.197 211.852C717.197 214.574 719.403 216.781 722.124 216.781C724.845 216.781 727.052 214.574 727.052 211.852C727.052 209.129 724.845 206.922 722.124 206.922C719.403 206.922 717.197 209.129 717.197 211.852Z" fill="#050505" stroke="#4B4B4B" stroke-width="2"/>
<ellipse rx="2.96378" ry="2.96484" transform="matrix(-1 0 0 1 1119.51 130.965)" fill="#4B4B4B"/>
<ellipse rx="2.96378" ry="2.96484" transform="matrix(-1 0 0 1 1119.51 156.752)" fill="#4B4B4B"/>
<g filter="url(#filter1_ddd)">
<ellipse rx="2.96378" ry="2.96484" transform="matrix(-1 0 0 1 1119.51 181.957)" fill="white"/>
</g>
<ellipse rx="2.96378" ry="2.96484" transform="matrix(-1 0 0 1 1119.51 209.35)" fill="#4B4B4B"/>
<ellipse rx="2.96378" ry="2.96484" transform="matrix(-1 0 0 1 1119.51 234.744)" fill="#4B4B4B"/>
<g filter="url(#filter2_f)">
<ellipse rx="8.89135" ry="8.91391" transform="matrix(1 0 0 -1 1251.44 181.585)" fill="#05F5DA"/>
</g>
<g filter="url(#filter3_dd)">
<ellipse rx="8.89135" ry="8.91391" transform="matrix(1 0 0 -1 1251.65 181.359)" fill="white"/>
</g>
<defs>
<filter id="filter0_d" x="832.542" y="159.992" width="43.9276" height="43.9297" filterUnits="userSpaceOnUse" color-interpolation-filters="sRGB">
<feFlood flood-opacity="0" result="BackgroundImageFix"/>
<feColorMatrix in="SourceAlpha" type="matrix" values="0 0 0 0 0 0 0 0 0 0 0 0 0 0 0 0 0 0 127 0"/>
<feOffset/>
<feGaussianBlur stdDeviation="9.5"/>
<feColorMatrix type="matrix" values="0 0 0 0 0.0196078 0 0 0 0 0.960784 0 0 0 0 0.854902 0 0 0 1 0"/>
<feBlend mode="normal" in2="BackgroundImageFix" result="effect1_dropShadow"/>
<feBlend mode="normal" in="SourceGraphic" in2="effect1_dropShadow" result="shape"/>
</filter>
<filter id="filter1_ddd" x="1097.54" y="159.992" width="43.9276" height="43.9297" filterUnits="userSpaceOnUse" color-interpolation-filters="sRGB">
<feFlood flood-opacity="0" result="BackgroundImageFix"/>
<feColorMatrix in="SourceAlpha" type="matrix" values="0 0 0 0 0 0 0 0 0 0 0 0 0 0 0 0 0 0 127 0"/>
<feOffset/>
<feGaussianBlur stdDeviation="7"/>
<feColorMatrix type="matrix" values="0 0 0 0 0 0 0 0 0 1 0 0 0 0 0.8875 0 0 0 1 0"/>
<feBlend mode="normal" in2="BackgroundImageFix" result="effect1_dropShadow"/>
<feColorMatrix in="SourceAlpha" type="matrix" values="0 0 0 0 0 0 0 0 0 0 0 0 0 0 0 0 0 0 127 0"/>
<feOffset/>
<feGaussianBlur stdDeviation="9.5"/>
<feColorMatrix type="matrix" values="0 0 0 0 0.0196078 0 0 0 0 0.960784 0 0 0 0 0.854902 0 0 0 1 0"/>
<feBlend mode="normal" in2="effect1_dropShadow" result="effect2_dropShadow"/>
<feColorMatrix in="SourceAlpha" type="matrix" values="0 0 0 0 0 0 0 0 0 0 0 0 0 0 0 0 0 0 127 0"/>
<feOffset/>
<feGaussianBlur stdDeviation="4"/>
<feColorMatrix type="matrix" values="0 0 0 0 0.0196078 0 0 0 0 0.960784 0 0 0 0 0.854902 0 0 0 1 0"/>
<feBlend mode="normal" in2="effect2_dropShadow" result="effect3_dropShadow"/>
<feBlend mode="normal" in="SourceGraphic" in2="effect3_dropShadow" result="shape"/>
</filter>
<filter id="filter2_f" x="1230.55" y="160.671" width="41.7827" height="41.8278" filterUnits="userSpaceOnUse" color-interpolation-filters="sRGB">
<feFlood flood-opacity="0" result="BackgroundImageFix"/>
<feBlend mode="normal" in="SourceGraphic" in2="BackgroundImageFix" result="shape"/>
<feGaussianBlur stdDeviation="6" result="effect1_foregroundBlur"/>
</filter>
<filter id="filter3_dd" x="1219.76" y="149.445" width="63.7827" height="63.8278" filterUnits="userSpaceOnUse" color-interpolation-filters="sRGB">
<feFlood flood-opacity="0" result="BackgroundImageFix"/>
<feColorMatrix in="SourceAlpha" type="matrix" values="0 0 0 0 0 0 0 0 0 0 0 0 0 0 0 0 0 0 127 0"/>
<feOffset/>
<feGaussianBlur stdDeviation="7"/>
<feColorMatrix type="matrix" values="0 0 0 0 0 0 0 0 0 1 0 0 0 0 0.8875 0 0 0 1 0"/>
<feBlend mode="normal" in2="BackgroundImageFix" result="effect1_dropShadow"/>
<feColorMatrix in="SourceAlpha" type="matrix" values="0 0 0 0 0 0 0 0 0 0 0 0 0 0 0 0 0 0 127 0"/>
<feOffset/>
<feGaussianBlur stdDeviation="11.5"/>
<feColorMatrix type="matrix" values="0 0 0 0 0.0196078 0 0 0 0 0.960784 0 0 0 0 0.854902 0 0 0 1 0"/>
<feBlend mode="normal" in2="effect1_dropShadow" result="effect2_dropShadow"/>
<feBlend mode="normal" in="SourceGraphic" in2="effect2_dropShadow" result="shape"/>
</filter>
<linearGradient id="paint0_linear" x1="2.2378" y1="-2.22734" x2="100.627" y2="111.959" gradientUnits="userSpaceOnUse">
<stop stop-color="#303030" stop-opacity="0"/>
<stop stop-color="#303030"/>
<stop offset="0.994475" stop-color="#303030" stop-opacity="0.5"/>
</linearGradient>
<linearGradient id="paint1_linear" x1="2.2165" y1="-2.22734" x2="100.741" y2="111.027" gradientUnits="userSpaceOnUse">
<stop stop-color="#303030" stop-opacity="0"/>
<stop stop-color="#303030"/>
<stop offset="0.994475" stop-color="#303030" stop-opacity="0.5"/>
</linearGradient>
<linearGradient id="paint2_linear" x1="2.21437" y1="-2.22734" x2="100.752" y2="110.933" gradientUnits="userSpaceOnUse">
<stop stop-color="#303030" stop-opacity="0"/>
<stop stop-color="#303030"/>
<stop offset="0.994475" stop-color="#303030" stop-opacity="0.5"/>
</linearGradient>
<linearGradient id="paint3_linear" x1="2.23127" y1="-2.22734" x2="100.663" y2="111.674" gradientUnits="userSpaceOnUse">
<stop stop-color="#303030" stop-opacity="0"/>
<stop stop-color="#303030"/>
<stop offset="0.994475" stop-color="#303030" stop-opacity="0.5"/>
</linearGradient>
<linearGradient id="paint4_linear" x1="2.26526" y1="-2.22734" x2="100.47" y2="113.143" gradientUnits="userSpaceOnUse">
<stop stop-color="#303030" stop-opacity="0"/>
<stop stop-color="#303030"/>
<stop offset="0.994475" stop-color="#303030" stop-opacity="0.5"/>
</linearGradient>
<linearGradient id="paint5_linear" x1="2.3187" y1="-2.22734" x2="100.133" y2="115.395" gradientUnits="userSpaceOnUse">
<stop stop-color="#303030" stop-opacity="0"/>
<stop stop-color="#303030"/>
<stop offset="0.994475" stop-color="#303030" stop-opacity="0.5"/>
</linearGradient>
<linearGradient id="paint6_linear" x1="2.38562" y1="-2.22734" x2="99.6556" y2="118.117" gradientUnits="userSpaceOnUse">
<stop stop-color="#303030" stop-opacity="0"/>
<stop stop-color="#303030"/>
<stop offset="0.994475" stop-color="#303030" stop-opacity="0.5"/>
</linearGradient>
<linearGradient id="paint7_linear" x1="2.2378" y1="-2.22734" x2="100.627" y2="111.959" gradientUnits="userSpaceOnUse">
<stop stop-color="#303030" stop-opacity="0"/>
<stop stop-color="#303030"/>
<stop offset="0.994475" stop-color="#303030" stop-opacity="0.5"/>
</linearGradient>
<linearGradient id="paint8_linear" x1="2.2165" y1="-2.22734" x2="100.741" y2="111.027" gradientUnits="userSpaceOnUse">
<stop stop-color="#303030" stop-opacity="0"/>
<stop stop-color="#303030"/>
<stop offset="0.994475" stop-color="#303030" stop-opacity="0.5"/>
</linearGradient>
<linearGradient id="paint9_linear" x1="2.21437" y1="-2.22734" x2="100.752" y2="110.933" gradientUnits="userSpaceOnUse">
<stop stop-color="#303030" stop-opacity="0"/>
<stop stop-color="#303030"/>
<stop offset="0.994475" stop-color="#303030" stop-opacity="0.5"/>
</linearGradient>
<linearGradient id="paint10_linear" x1="2.23127" y1="-2.22734" x2="100.663" y2="111.674" gradientUnits="userSpaceOnUse">
<stop stop-color="#303030" stop-opacity="0"/>
<stop stop-color="#303030"/>
<stop offset="0.994475" stop-color="#303030" stop-opacity="0.5"/>
</linearGradient>
<linearGradient id="paint11_linear" x1="2.26526" y1="-2.22734" x2="100.47" y2="113.143" gradientUnits="userSpaceOnUse">
<stop stop-color="#303030" stop-opacity="0"/>
<stop stop-color="#303030"/>
<stop offset="0.994475" stop-color="#303030" stop-opacity="0.5"/>
</linearGradient>
<linearGradient id="paint12_linear" x1="2.3187" y1="-2.22734" x2="100.133" y2="115.395" gradientUnits="userSpaceOnUse">
<stop stop-color="#303030" stop-opacity="0"/>
<stop stop-color="#303030"/>
<stop offset="0.994475" stop-color="#303030" stop-opacity="0.5"/>
</linearGradient>
<linearGradient id="paint13_linear" x1="2.38562" y1="-2.22734" x2="99.6556" y2="118.117" gradientUnits="userSpaceOnUse">
<stop stop-color="#303030" stop-opacity="0"/>
<stop stop-color="#303030"/>
<stop offset="0.994475" stop-color="#303030" stop-opacity="0.5"/>
</linearGradient>
<linearGradient id="paint14_linear" x1="1248.22" y1="183.803" x2="1201.28" y2="269.179" gradientUnits="userSpaceOnUse">
<stop stop-color="#05F5DA"/>
<stop offset="0.292818" stop-color="#465856"/>
<stop offset="1" stop-color="#4B4B4B"/>
</linearGradient>
<linearGradient id="paint15_linear" x1="1247.94" y1="183.302" x2="1179.03" y2="258.321" gradientUnits="userSpaceOnUse">
<stop stop-color="#05F5DA"/>
<stop offset="0.292818" stop-color="#465856"/>
<stop offset="1" stop-color="#4B4B4B"/>
</linearGradient>
<linearGradient id="paint16_linear" x1="1247.55" y1="182.692" x2="1153.14" y2="238.761" gradientUnits="userSpaceOnUse">
<stop stop-color="#05F5DA"/>
<stop offset="0.292818" stop-color="#465856"/>
<stop offset="1" stop-color="#4B4B4B"/>
</linearGradient>
<linearGradient id="paint17_linear" x1="1247.16" y1="181.855" x2="1133.02" y2="212.412" gradientUnits="userSpaceOnUse">
<stop stop-color="#05F5DA"/>
<stop offset="0.292818" stop-color="#465856"/>
<stop offset="1" stop-color="#4B4B4B"/>
</linearGradient>
<linearGradient id="paint18_linear" x1="1246.7" y1="180.379" x2="1113.59" y2="164.456" gradientUnits="userSpaceOnUse">
<stop stop-color="#05F5DA"/>
<stop offset="0.292818" stop-color="#465856"/>
<stop offset="1" stop-color="#4B4B4B"/>
</linearGradient>
<linearGradient id="paint19_linear" x1="6.65439" y1="-1.18619" x2="114.096" y2="-104.631" gradientUnits="userSpaceOnUse">
<stop stop-color="#05F5DA"/>
<stop offset="0.292818" stop-color="#465856"/>
<stop offset="1" stop-color="#4B4B4B" stop-opacity="0.11"/>
</linearGradient>
<linearGradient id="paint20_linear" x1="6.18701" y1="-1.18619" x2="113.05" y2="-96.8473" gradientUnits="userSpaceOnUse">
<stop stop-color="#05F5DA"/>
<stop offset="0.292818" stop-color="#465856"/>
<stop offset="1" stop-color="#4B4B4B" stop-opacity="0.11"/>
</linearGradient>
<linearGradient id="paint21_linear" x1="5.90172" y1="-1.18619" x2="112.094" y2="-91.8628" gradientUnits="userSpaceOnUse">
<stop stop-color="#05F5DA"/>
<stop offset="0.292818" stop-color="#465856"/>
<stop offset="1" stop-color="#4B4B4B" stop-opacity="0.11"/>
</linearGradient>
<linearGradient id="paint22_linear" x1="5.79732" y1="-1.18619" x2="111.676" y2="-89.9963" gradientUnits="userSpaceOnUse">
<stop stop-color="#05F5DA"/>
<stop offset="0.292818" stop-color="#465856"/>
<stop offset="1" stop-color="#4B4B4B" stop-opacity="0.11"/>
</linearGradient>
<linearGradient id="paint23_linear" x1="5.89252" y1="-1.18619" x2="112.058" y2="-91.6992" gradientUnits="userSpaceOnUse">
<stop stop-color="#05F5DA"/>
<stop offset="0.292818" stop-color="#465856"/>
<stop offset="1" stop-color="#4B4B4B" stop-opacity="0.11"/>
</linearGradient>
<linearGradient id="paint24_linear" x1="6.18701" y1="-1.18619" x2="113.05" y2="-96.8473" gradientUnits="userSpaceOnUse">
<stop stop-color="#05F5DA"/>
<stop offset="0.292818" stop-color="#465856"/>
<stop offset="1" stop-color="#4B4B4B" stop-opacity="0.11"/>
</linearGradient>
<linearGradient id="paint25_linear" x1="6.62986" y1="-1.18619" x2="114.056" y2="-104.234" gradientUnits="userSpaceOnUse">
<stop stop-color="#05F5DA"/>
<stop offset="0.292818" stop-color="#465856"/>
<stop offset="1" stop-color="#4B4B4B" stop-opacity="0.11"/>
</linearGradient>
</defs>
</svg>
